<?xml version="1.0" encoding="utf-8" ?>
<svg xmlns="http://www.w3.org/2000/svg" xmlns:xlink="http://www.w3.org/1999/xlink" width="1024" height="1024">
	<path fill="#FAF5E9" d="M0 0L1024 0L1024 1024L0 1024L0 0Z"/>
	<path fill="#EF8319" d="M614.245 549.851C608.835 558.043 601.72 565.832 595.517 573.456L563.779 612.639L536.499 646.514C528.855 656.114 521.195 667.854 511.505 675.398C508.849 677.465 505.49 678.573 502.116 677.987C498.469 677.353 494.603 673.47 492.096 670.867C485.638 664.161 480.141 656.439 474.269 649.223Q454.653 625.06 435.396 600.61C415.438 575.404 395.494 550.294 375.965 524.751C364.097 509.227 352.178 493.718 341.179 477.558C301.909 419.861 279.778 364.592 293.271 294.054C303.569 240.218 337.391 190.981 382.608 160.334Q384.865 158.829 387.158 157.381Q389.452 155.933 391.78 154.541Q394.108 153.15 396.47 151.816Q398.832 150.483 401.226 149.208Q403.62 147.933 406.045 146.717Q408.47 145.502 410.924 144.346Q413.378 143.191 415.86 142.096Q418.341 141.002 420.849 139.969Q423.357 138.936 425.89 137.965Q428.423 136.994 430.979 136.086Q433.535 135.178 436.112 134.333Q438.69 133.488 441.287 132.707Q443.885 131.926 446.501 131.209Q449.117 130.493 451.75 129.841Q454.382 129.189 457.031 128.602Q459.679 128.015 462.341 127.493Q465.002 126.972 467.676 126.516Q470.35 126.061 473.034 125.671Q475.719 125.282 478.412 124.958Q481.105 124.635 483.805 124.378Q486.505 124.122 489.211 123.931Q491.917 123.741 494.627 123.618Q497.336 123.495 500.048 123.438Q502.76 123.382 505.472 123.392Q508.185 123.403 510.896 123.48Q513.607 123.557 516.316 123.701Q519.024 123.845 521.729 124.056Q524.433 124.267 527.131 124.544Q529.829 124.822 532.52 125.166Q535.21 125.51 537.891 125.92Q540.573 126.33 543.243 126.806Q545.913 127.282 548.571 127.824C592.657 136.362 634.698 159.067 664.916 192.485C672.98 201.403 679.911 211.178 686.611 221.141C713.721 261.454 724.784 312.157 719.778 360.211C718.498 372.496 715.552 384.182 713.18 396.26C720.809 396.344 740.123 394.476 745.515 399.653C747.058 401.135 747.915 403.389 747.862 405.52C747.723 411.188 739.371 436.623 737.237 444.464L717.56 517.558C714.982 526.857 712.68 536.372 709.735 545.554C709.083 547.589 707.966 549.56 706.313 550.95C704.761 552.256 702.597 552.578 700.647 552.84C694.593 553.654 688.142 553.48 682.035 553.633Q663.567 554.264 645.092 553.886C639.133 553.774 632.558 554.128 626.675 553.213C622.499 552.564 618.341 550.918 614.245 549.851Z"/>
	<path fill="#23363B" d="M439.744 221.595C440.262 212.751 439.592 185.416 442.275 179.08C443.026 178.418 443.484 178.104 444.475 177.833C446.002 177.415 448.149 177.626 449.38 178.659C450.528 179.622 451.077 181.043 451.347 182.477C452.03 186.107 451.796 190.196 451.894 193.887C452.146 203.394 451.991 213.794 453.553 223.151C453.586 223.348 453.623 223.544 453.658 223.741C460.478 232.084 470.031 239.643 475.819 248.535C476.319 257.579 475.68 266.907 475.746 275.986C478.283 275.584 480.884 275.097 483.46 275.136C486.121 275.177 488.82 275.928 490.684 277.929C491.904 279.238 492.097 281.173 492.308 282.873C493.065 288.971 492.574 295.589 492.568 301.753C492.552 316.841 492.046 331.945 492.105 347.02L527.38 346.879C532.926 346.829 538.708 346.166 544.224 346.6C546.612 346.788 548.699 347.214 550.797 348.376C552.891 352.34 551.803 388.55 551.985 396.059C566.306 395.955 580.748 394.77 595.047 395.445C592.256 389.833 589.278 384.212 587.13 378.316Q586.672 377.09 586.275 375.843Q585.878 374.596 585.543 373.331Q585.209 372.065 584.938 370.785Q584.667 369.504 584.46 368.212Q584.253 366.92 584.11 365.619Q583.967 364.318 583.89 363.011Q583.812 361.705 583.799 360.396Q583.787 359.087 583.839 357.78Q583.892 356.472 584.009 355.168Q584.127 353.865 584.309 352.569Q584.491 351.273 584.738 349.987Q584.984 348.702 585.294 347.43Q585.604 346.159 585.977 344.904Q586.35 343.65 586.785 342.415Q587.219 341.181 587.715 339.969Q588.211 338.758 588.766 337.573C594.435 325.738 605.608 316.237 617.923 311.894Q619.042 311.508 620.179 311.178Q621.315 310.848 622.467 310.575Q623.619 310.302 624.783 310.086Q625.946 309.87 627.12 309.712Q628.293 309.555 629.472 309.455Q630.651 309.356 631.835 309.315Q633.017 309.274 634.201 309.292Q635.385 309.31 636.566 309.386Q637.747 309.463 638.923 309.598Q640.099 309.733 641.267 309.926Q642.434 310.119 643.591 310.37Q644.748 310.621 645.891 310.929Q647.034 311.237 648.16 311.601Q649.286 311.965 650.393 312.384Q651.5 312.804 652.585 313.278Q653.669 313.752 654.729 314.279Q655.9 314.843 657.041 315.464Q658.182 316.086 659.29 316.764Q660.399 317.442 661.471 318.175Q662.544 318.908 663.579 319.694Q664.614 320.48 665.608 321.317Q666.602 322.154 667.553 323.04Q668.503 323.925 669.408 324.858Q670.313 325.79 671.17 326.767Q672.027 327.744 672.834 328.762Q673.641 329.781 674.396 330.838Q675.15 331.896 675.851 332.991Q676.552 334.085 677.196 335.213Q677.841 336.341 678.428 337.5Q679.016 338.659 679.544 339.846Q680.072 341.034 680.54 342.246Q681.008 343.458 681.415 344.692C687.619 363.283 680.563 379.436 672.344 395.974C685.945 396.393 699.572 395.797 713.18 396.26C720.809 396.344 740.123 394.476 745.515 399.653C747.058 401.135 747.915 403.389 747.862 405.52C747.723 411.188 739.371 436.623 737.237 444.464L717.56 517.558C714.982 526.857 712.68 536.372 709.735 545.554C709.083 547.589 707.966 549.56 706.313 550.95C704.761 552.256 702.597 552.578 700.647 552.84C694.593 553.654 688.142 553.48 682.035 553.633Q663.567 554.264 645.092 553.886C639.133 553.774 632.558 554.128 626.675 553.213C622.499 552.564 618.341 550.918 614.245 549.851Q595.593 544.944 577.303 538.821C569.119 549.016 559.262 557.813 550.224 567.239L529.648 588.738C524.723 593.842 519.731 599.425 514.037 603.668C509.913 606.741 506.237 607.885 501.095 606.972C497.661 606.362 495.071 604.725 492.386 602.591C482.379 594.638 471.805 582.356 462.849 572.951C442.731 551.822 422.8 530.685 404.213 508.169Q387.187 487.547 371.784 465.686C364.536 456.397 357.711 446.079 351.786 435.913C347.681 429.256 338.723 417.483 337.999 409.994C336.93 398.927 337.806 386.468 337.807 375.269C337.807 364.749 336.906 352.4 338.08 342.059C338.242 340.625 338.946 339.205 339.955 338.167C341.229 336.855 342.427 336.526 344.2 336.268C350.265 335.388 356.838 336.028 362.976 336.03Q381.33 336.081 399.682 335.776C400.737 323.226 399.918 310.015 399.883 297.385C399.87 293.09 399.599 288.605 400.051 284.332C400.235 282.591 400.546 279.893 401.819 278.561C404.494 275.764 412.902 276.875 416.576 276.987C416.199 267.108 415.891 256.83 416.499 246.965C421.764 239.027 432.912 228.793 439.744 221.595Z"/>
	<path fill="#2BA9AC" d="M351.913 349.534C368.077 350.698 384.305 350.02 400.486 349.992C400.428 362.472 400.908 374.916 400.958 387.388C401.033 405.854 400.731 424.338 401.062 442.799C392.493 447.219 387.947 451.729 382.974 459.988C378.713 461.392 375.368 462.937 371.784 465.686C364.536 456.397 357.711 446.079 351.786 435.913L351.913 349.534Z"/>
	<path fill="#23363B" d="M373.065 369.722C373.929 369.602 374.462 369.603 375.304 369.834C377.226 372.964 376.299 382.148 376.417 385.957L368.875 386.062C367.851 386.097 367.15 386.13 366.197 385.726C364.283 382.136 365.446 374.145 365.478 370.03C368.011 370.035 370.536 369.864 373.065 369.722Z"/>
	<path fill="#23363B" d="M372.586 409.229C373.34 409.222 374.042 409.306 374.79 409.393C376.641 412.044 375.723 420.75 375.794 424.162C373.746 424.144 371.693 424.204 369.644 424.231C368.319 424.373 367.009 424.723 365.821 423.976C363.72 420.383 365.011 413.512 365.085 409.401L372.586 409.229Z"/>
	<path fill="#2BA9AC" d="M462.578 290.722C467.771 290.385 473.064 290.496 478.251 290.852C478.488 299.203 478.059 307.665 478.053 316.029L478.076 373.85L478.503 480.446C475.481 480.487 472.627 480.625 469.64 481.112C468.122 476.681 466.328 472.65 462.853 469.358C458.17 464.92 452.835 463.941 446.639 464.031C444.592 464.483 442.844 465.205 440.932 466.058C439.287 461.458 437.404 456.725 434.711 452.627C429.947 445.376 423.288 442.083 415.095 440.401Q413.534 365.916 414.098 291.419C430.247 290.696 446.421 291.401 462.578 290.722Z"/>
	<path fill="#23363B" d="M428.641 311.027L439.447 311.088C439.472 316.264 439.534 321.399 439.902 326.567L428.945 326.658L428.641 311.027Z"/>
	<path fill="#23363B" d="M429.375 383.005L438.939 382.973Q439.364 390.961 439.495 398.96C436.064 398.998 432.626 398.866 429.196 398.779C429.101 393.531 429.298 388.254 429.375 383.005Z"/>
	<path fill="#23363B" d="M429.109 348.012L439.937 348.337C439.587 353.222 439.58 358.146 439.472 363.042L429.007 362.972C428.938 357.989 429.059 352.995 429.109 348.012Z"/>
	<path fill="#23363B" d="M453.904 346.546L463.618 346.511L463.156 360.122L453.762 360.564Q453.538 353.552 453.904 346.546Z"/>
	<path fill="#EF8319" d="M631.4 323.189C638.596 322.604 646.005 324.782 652.097 328.57C660.295 333.666 666.936 342.508 669.097 351.96C670.429 357.783 670.039 363.968 668.396 369.684C664.708 382.514 656.539 394.753 650.139 406.427C645.146 415.534 640.435 424.878 634.988 433.72L634.094 434.396C633.963 434.311 633.822 434.24 633.701 434.142C631.275 432.174 603.924 382.218 601.591 377.011C599.696 372.78 598.164 368.315 597.593 363.698C596.405 354.083 599.318 344.894 605.321 337.354C611.786 329.235 621.188 324.403 631.4 323.189Z"/>
	<path fill="#23363B" d="M630.703 344.609Q631.08 344.533 631.46 344.476Q631.841 344.419 632.224 344.381Q632.606 344.343 632.99 344.323Q633.374 344.304 633.759 344.303Q634.144 344.303 634.528 344.321Q634.912 344.34 635.295 344.377Q635.677 344.414 636.058 344.47Q636.438 344.526 636.816 344.601Q637.193 344.676 637.566 344.769Q637.939 344.862 638.307 344.974Q638.676 345.085 639.038 345.214Q639.4 345.344 639.755 345.491Q640.111 345.638 640.458 345.802Q640.806 345.967 641.145 346.148Q641.484 346.329 641.814 346.527Q642.144 346.724 642.464 346.938Q642.784 347.152 643.093 347.381Q643.402 347.61 643.699 347.854Q643.996 348.098 644.281 348.357Q644.566 348.615 644.838 348.887Q645.109 349.159 645.368 349.444Q645.626 349.729 645.869 350.027Q646.113 350.324 646.342 350.633Q646.571 350.942 646.784 351.262Q646.998 351.582 647.195 351.912Q647.393 352.243 647.573 352.582Q647.754 352.921 647.918 353.269Q648.082 353.617 648.229 353.973Q648.376 354.328 648.505 354.69Q648.634 355.053 648.745 355.421Q648.856 355.789 648.949 356.162Q649.042 356.536 649.116 356.913Q649.19 357.29 649.246 357.671Q649.302 358.052 649.339 358.434Q649.376 358.817 649.394 359.201Q649.412 359.586 649.411 359.97Q649.41 360.355 649.39 360.739Q649.371 361.123 649.332 361.506Q649.293 361.888 649.236 362.269Q649.178 362.649 649.102 363.026Q649.026 363.403 648.932 363.776Q648.837 364.149 648.725 364.516Q648.612 364.884 648.481 365.246Q648.351 365.608 648.202 365.963Q648.054 366.318 647.888 366.665Q647.723 367.012 647.54 367.35Q647.358 367.689 647.159 368.018Q646.96 368.347 646.745 368.666Q646.531 368.986 646.3 369.294Q646.07 369.602 645.825 369.898Q645.58 370.194 645.32 370.478Q645.061 370.762 644.788 371.033Q644.515 371.304 644.229 371.561Q643.943 371.818 643.644 372.061Q643.346 372.304 643.036 372.532Q642.726 372.759 642.405 372.972Q642.084 373.184 641.754 373.38Q641.423 373.576 641.083 373.756Q640.743 373.936 640.394 374.098Q640.046 374.261 639.69 374.407Q639.334 374.552 638.971 374.68Q638.608 374.808 638.239 374.917Q637.871 375.027 637.497 375.119Q637.124 375.21 636.746 375.283Q636.37 375.356 635.991 375.41Q635.612 375.464 635.231 375.5Q634.85 375.535 634.467 375.552Q634.085 375.569 633.702 375.567Q633.319 375.565 632.937 375.544Q632.554 375.524 632.173 375.484Q631.793 375.445 631.414 375.387Q631.036 375.329 630.661 375.253Q630.285 375.177 629.914 375.082Q629.543 374.987 629.177 374.874Q628.812 374.762 628.452 374.631Q628.092 374.501 627.739 374.353Q627.385 374.205 627.04 374.04Q626.694 373.875 626.358 373.693Q626.021 373.511 625.693 373.313Q625.365 373.115 625.048 372.901Q624.73 372.687 624.423 372.458Q624.117 372.229 623.822 371.985Q623.526 371.741 623.244 371.483Q622.961 371.225 622.691 370.954Q622.421 370.682 622.165 370.398Q621.908 370.113 621.666 369.817Q621.424 369.52 621.197 369.212Q620.97 368.904 620.758 368.585Q620.546 368.266 620.35 367.937Q620.154 367.608 619.975 367.27Q619.795 366.932 619.632 366.585Q619.469 366.239 619.324 365.885Q619.178 365.531 619.05 365.17Q618.921 364.809 618.811 364.442Q618.701 364.076 618.608 363.704Q618.516 363.333 618.442 362.957Q618.368 362.581 618.312 362.203Q618.257 361.824 618.22 361.443Q618.183 361.061 618.165 360.679Q618.147 360.297 618.147 359.914Q618.148 359.531 618.167 359.148Q618.186 358.766 618.224 358.385Q618.262 358.004 618.319 357.625Q618.375 357.247 618.45 356.871Q618.525 356.496 618.619 356.125Q618.712 355.753 618.823 355.387Q618.935 355.021 619.064 354.66Q619.193 354.3 619.34 353.946Q619.487 353.592 619.651 353.246Q619.814 352.9 619.995 352.563Q620.176 352.225 620.372 351.897Q620.569 351.568 620.782 351.25Q620.995 350.932 621.223 350.624Q621.451 350.317 621.694 350.021Q621.937 349.725 622.194 349.441Q622.451 349.157 622.721 348.886Q622.992 348.615 623.275 348.358Q623.559 348.101 623.855 347.858Q624.151 347.615 624.458 347.386Q624.765 347.158 625.084 346.945Q625.402 346.732 625.73 346.535Q626.058 346.338 626.396 346.157Q626.733 345.976 627.079 345.812Q627.425 345.648 627.779 345.501Q628.132 345.354 628.492 345.224Q628.853 345.095 629.219 344.983Q629.585 344.872 629.956 344.778Q630.328 344.684 630.703 344.609Z"/>
	<path fill="#FAF5E9" d="M574.563 463.74C580.498 464.889 586.353 467.581 592.009 469.679C601.453 473.184 610.95 476.506 620.375 480.074C627.405 482.736 634.741 486.161 642.106 487.723C646.141 488.578 650.32 488.597 654.426 488.794C652.44 495.757 649.347 502.725 646.905 509.58C643.382 519.466 640.254 529.822 636.037 539.419C634.855 540.191 633.532 539.972 632.139 540.026C625.619 539.318 619.116 537.073 612.83 535.261C602.27 532.218 591.79 528.961 581.189 526.046C575.907 524.593 570.569 522.905 565.123 522.215C560.727 521.657 556.098 521.861 551.666 521.848C554.049 513.928 557.451 506.174 560.529 498.498L574.563 463.74Z"/>
	<path fill="#FAF5E9" d="M664.978 409.602C670.511 409.264 676.278 409.913 681.837 410.046C678.356 418.876 675.705 428.117 672.553 437.079C667.855 450.438 662.712 463.632 658.072 477.015C653.946 477.182 649.89 477.367 645.808 476.579C637.575 474.99 629.342 471.123 621.444 468.265Q600.204 460.574 578.875 453.136L580.193 449.875C585.373 436.439 591.024 423.123 596.555 409.825C599.023 410.058 601.491 410.507 603.943 410.873C610.279 417.051 618.571 437.147 623.634 446.101C625.026 448.562 626.41 451.46 628.348 453.518C629.553 454.797 631.035 455.662 632.831 455.625C635.449 455.57 637.948 453.741 639.685 451.923C645.501 445.838 655.062 426.097 659.71 417.728C661.003 415.401 662.443 411.882 664.407 410.095C664.593 409.925 664.788 409.766 664.978 409.602Z"/>
	<path fill="#FAF5E9" d="M559.773 463.236C560.865 463.222 560.809 463.055 561.746 463.76C560.887 469.138 555.616 479.886 553.406 485.408Q546.187 503.607 539.34 521.948L488.375 521.959C487.692 521.947 486.994 521.836 486.315 521.763L485.934 521.016C487.511 514.281 491.135 507.375 493.85 500.987L509.64 464.023Q534.716 464.245 559.773 463.236Z"/>
	<path fill="#2BA9AC" d="M493.019 359.979L537.939 360.491C537.801 372.203 537.971 383.937 537.998 395.651C534.387 395.975 530.4 395.796 527.039 397.294C520.497 400.21 511.259 427.012 508.108 434.664C503.453 445.348 499.12 456.053 493.21 466.13C492.425 450.834 492.583 435.359 492.387 420.039C492.134 400.158 491.594 379.817 493.019 359.979Z"/>
	<path fill="#FAF5E9" d="M694.392 410.008L731.983 410.106L719.982 452.677C717.811 460.463 716.023 468.606 713.243 476.188C711.947 477.287 711.164 477.15 709.504 477.338C696.669 477.754 683.837 477.107 671.004 476.941C678.807 454.596 687.344 432.624 694.392 410.008Z"/>
	<path fill="#FAF5E9" d="M667.366 489.011Q688.848 488.935 710.33 489.151C706.504 505.941 701.98 522.674 697.901 539.415L690.375 539.461Q669.387 539.638 648.406 539.058C654.669 522.475 659.92 505.089 667.366 489.011Z"/>
	<path fill="#FAF5E9" d="M572.234 409.214C575.995 409.033 579.669 409.071 583.43 409.254Q574.696 430.764 566.45 452.466C554.013 452.701 541.558 452.341 529.125 452.025L515.711 451.809C520.414 437.634 527.146 423.932 532.611 410.008Q552.434 410.183 572.234 409.214Z"/>
	<path fill="#2BA9AC" d="M445.601 253.775C451.001 253.532 456.373 253.552 461.775 253.61C461.475 261.397 461.608 269.249 461.543 277.045L446.75 276.853Q438.762 276.669 430.772 276.637C430.253 269.197 430.498 261.684 430.589 254.232C435.585 254 440.601 253.923 445.601 253.775Z"/>
	<path fill="#8FD2D3" d="M591.446 227.661C600.228 227.305 609.136 228.84 616.106 234.573C623.235 240.437 625.311 247.632 626.2 256.44C627.96 255.398 629.83 254.543 631.668 253.647C636.442 254.381 641.442 255.538 645.211 258.752C648.542 261.593 650.439 265.671 650.732 270.018C650.997 273.939 649.914 277.851 647.175 280.743C645.141 282.89 642.419 284.34 639.557 285.038C633.382 286.545 625.992 285.662 619.648 285.627L595.08 285.624C585.263 285.453 555.397 286.999 548.108 284.317C543.973 282.795 540.438 279.819 538.617 275.763C536.448 270.932 536.61 265.121 538.661 260.285C540.948 254.894 545.453 250.866 550.945 248.904C557.576 246.536 562.757 248.058 568.78 251.043C569.149 247.156 570.251 244.172 572.404 240.897C576.718 234.336 583.722 229.206 591.446 227.661Z"/>
	<path fill="#8FD2D3" d="M504.407 172.641C507.831 172.602 511.173 173.005 514.309 174.456C520.597 177.367 522.96 182.94 525.103 189.055C530.51 188.757 535.234 188.446 539.596 192.364C542.152 194.659 543.763 197.819 543.86 201.276Q543.881 201.843 543.843 202.409Q543.805 202.975 543.709 203.535Q543.613 204.094 543.46 204.64Q543.307 205.187 543.098 205.715Q542.89 206.242 542.628 206.746Q542.366 207.249 542.053 207.723Q541.741 208.196 541.381 208.635Q541.022 209.074 540.619 209.474C534.184 215.878 520.645 213.165 512.311 213.005C504.046 212.903 483.116 214.938 476.771 211.134C474.161 209.569 472.459 207.068 471.821 204.109C471.031 200.443 471.52 196.489 473.699 193.373C477.774 187.545 481.966 189.545 487.697 187.877C489.949 187.221 490.902 181.388 492.503 179.189C495.399 175.215 499.677 173.39 504.407 172.641Z"/>
	<path fill="#23363B" d="M721.549 722.567C727.153 722.232 732.876 722.367 738.489 722.359C750.613 722.34 763.379 721.77 773.831 729.004C780.341 733.51 784.565 740.417 785.894 748.213C787.271 756.287 785.874 765.225 780.959 771.909C775.06 779.93 766.533 782.544 757.12 783.81C751.661 785.019 744.643 784.288 739.024 784.224C738.952 790.078 740.492 802.339 738.388 807.26C737.92 808.355 736.968 809.535 735.775 809.876C732.947 810.685 724.206 810.624 721.641 809.169C720.685 808.626 720.397 808.346 720.215 807.253C719.029 800.112 719.917 784.191 719.919 776.334C719.923 760.054 719.154 743.33 720.011 727.085C720.085 725.684 720.059 724.506 720.836 723.29L721.104 723.261L721.549 722.567Z"/>
	<path fill="#FAF5E9" d="M745.984 740.712C749.025 740.579 752.06 740.399 755.061 741.028C759.3 741.916 763.312 744.089 765.66 747.834C767.234 750.346 767.947 753.344 767.157 756.247C766.073 760.23 763.222 762.688 759.787 764.658C752.993 766.736 746.112 766.245 739.122 765.923C739.591 757.682 739.61 749.389 739.754 741.138L745.984 740.712Z"/>
	<path fill="#23363B" d="M537.027 756.956C536.977 747.917 535.994 734.886 537.195 726.271C537.37 725.015 537.927 724.127 539.006 723.439C541.921 721.58 549.911 721.863 553.148 722.626C554.774 723.009 555.43 723.712 556.334 725.058C557.101 733.301 557.494 803.527 556.28 808.395C554.867 809.545 553.196 809.611 551.455 809.879C547.554 810.043 541.136 810.938 537.934 808.453C535.858 802.411 537.002 782.299 537.023 774.908Q520.44 774.647 503.855 774.824C503.646 780.045 504.712 806.441 502.967 808.63C499.295 810.313 494.517 810.336 490.524 810.011C488.56 809.851 485.893 809.682 484.537 808.071C483.712 801.533 483.786 729.112 484.575 725.843C484.948 724.297 486.67 723.399 487.907 722.552C492.41 722.289 498.522 721.319 502.474 723.855C504.536 728.2 503.756 750.785 503.93 756.958L537.027 756.956Z"/>
	<path fill="#23363B" d="M577.627 722.558C585.79 721.96 628.919 721.401 633.901 723.567C634.261 724.151 634.468 724.657 634.567 725.341C635.039 728.598 635.358 737.653 633.534 740.161C629.66 742.156 601.255 741.071 595.128 741.069L595.121 756.995C600.991 756.996 606.866 757.148 612.736 757.08C616.017 757.042 619.395 756.536 622.661 756.802C624.373 756.941 625.756 757.439 626.854 758.837C629.169 761.783 628.402 770.315 627.688 773.791C623.499 778.331 602.435 773.694 595.629 775.679C594.855 777.189 595.135 778.974 595.181 780.625L595.096 791.388C601.437 791.54 630.944 789.799 634.348 793.179C635.685 796.069 635.521 804.954 634.603 808.054C632.548 809.52 629.979 809.766 627.516 809.943C619.066 810.549 610.233 810.054 601.748 810.04C594.629 810.029 586.991 810.561 579.927 809.868C578.686 809.746 577.58 809.475 576.657 808.577C575.502 807.454 575.502 804.338 575.458 802.741C575.303 797.184 575.783 791.547 575.881 785.979Q576.033 771.835 575.996 757.69Q576.025 747.963 575.856 738.237C575.766 734.254 575.314 729.909 575.733 725.966C575.913 724.279 576.532 723.728 577.627 722.558Z"/>
	<path fill="#23363B" d="M824.812 721.168C834.841 719.975 847.958 722.838 855.972 729.203C857.496 730.414 858.728 731.893 858.783 733.933C858.866 737.051 851.005 744.178 848.82 746.47C843.604 743.306 837.538 739.562 831.318 738.963C827.922 738.637 823.318 739.654 820.731 741.913C819.35 743.119 817.846 744.9 817.928 746.851C818.217 753.769 838.066 758.399 843.541 760.757C847.531 762.476 851.41 764.622 854.595 767.613C859.383 772.109 862.056 777.951 862.239 784.516Q862.261 785.111 862.253 785.706Q862.245 786.301 862.208 786.895Q862.171 787.489 862.104 788.08Q862.037 788.672 861.94 789.259Q861.844 789.846 861.719 790.428Q861.593 791.01 861.439 791.585Q861.285 792.16 861.102 792.726Q860.919 793.292 860.708 793.849Q860.497 794.406 860.259 794.951Q860.021 795.496 859.756 796.029Q859.491 796.562 859.199 797.081Q858.908 797.6 858.591 798.104Q858.274 798.608 857.933 799.095Q857.591 799.583 857.226 800.052Q856.86 800.522 856.472 800.973Q856.083 801.424 855.673 801.855C848.399 809.48 837.636 811.462 827.568 811.698Q825.78 811.677 823.997 811.533C812.996 810.58 801.551 806.24 794.282 797.643C796.715 792.419 801.764 787.357 805.857 783.363C812.692 787.967 818.996 792.511 827.529 792.954C831.752 793.173 837.2 792.885 840.37 789.757C841.653 788.491 842.906 786.556 842.679 784.668C841.844 777.716 824.01 773.418 818.318 771.171C815.212 769.944 812.18 768.46 809.424 766.565C803.761 762.674 799.533 757.127 798.365 750.248C797.329 744.15 798.721 737.222 802.528 732.276C807.919 725.275 816.387 722.34 824.812 721.168Z"/>
	<path fill="#23363B" d="M200.896 721.191C205.279 720.918 209.566 720.828 213.924 721.472C223.364 722.868 232.222 727.268 238.002 735.009C234.452 739.162 230.271 742.742 226.225 746.399C222.973 744.313 219.842 742.209 216.221 740.799C209.704 738.262 202.548 738.191 196.16 741.196C189.816 744.181 184.783 750.18 182.431 756.767C179.811 764.102 180.39 772.703 183.829 779.698Q184.096 780.249 184.391 780.786Q184.685 781.322 185.006 781.844Q185.327 782.365 185.673 782.87Q186.019 783.375 186.39 783.862Q186.761 784.349 187.156 784.818Q187.551 785.286 187.968 785.734Q188.386 786.181 188.825 786.608Q189.264 787.034 189.724 787.439Q190.184 787.843 190.664 788.224Q191.143 788.604 191.641 788.961Q192.139 789.318 192.653 789.649Q193.168 789.98 193.699 790.286Q194.23 790.591 194.775 790.87Q195.32 791.148 195.879 791.399Q196.437 791.65 197.007 791.873Q197.577 792.097 198.158 792.291C208.878 795.849 216.597 791.611 226.017 787.111C227.518 787.208 227.905 787.731 229.082 788.625C231.951 791.503 234.999 794.407 237.342 797.735C231.21 805.423 223.054 809.737 213.381 811.166C201.361 812.942 188.763 810.657 178.936 803.254C169.235 795.945 163.227 784.589 161.653 772.634C160.034 760.339 163.122 747.072 170.757 737.194C178.239 727.515 188.991 722.741 200.896 721.191Z"/>
	<path fill="#23363B" d="M404.261 759.447C408.743 752.773 420.104 726.63 424.257 723.538C426.783 721.658 439.568 721.612 442.676 722.699C443.834 723.104 443.898 723.708 444.196 724.738C442.829 731.207 429.492 751.892 425.563 758.692C422.273 764.209 416.163 772.497 414.562 778.464C412.558 785.934 414.319 794.962 414.2 802.681C414.165 804.895 413.708 806.961 411.978 808.478C409.352 810.781 400.974 810.696 397.799 810.049C396.446 809.773 395.955 809.278 395.239 808.124C392.027 802.946 395.704 784.835 393.75 777.73C392.497 773.174 388.299 768.383 385.845 764.253C382.729 759.009 363.199 726.491 364.014 723.261C365.553 722.199 367.192 722.325 368.989 722.254C373.129 722.137 378.126 721.521 382.128 722.539C382.935 722.744 383.851 723.076 384.462 723.666C387.974 727.057 400.166 752.715 404.261 759.447Z"/>
	<path fill="#23363B" d="M286.605 722.573C296.997 721.857 307.708 722.374 318.143 722.36C328.216 722.347 338.691 721.775 348.716 722.487C350.466 722.612 351.894 722.638 353.319 723.715C354.356 725.779 354.522 727.575 354.547 729.853C354.577 732.635 355.273 738.101 353.13 739.963C350.31 742.414 333.975 741.327 329.688 741.2Q329.438 764.413 329.561 787.625C329.652 793.246 331.165 803.99 328.251 808.713C326.856 809.753 325.319 809.846 323.635 809.983C319.711 810.302 313.522 810.636 310.431 807.926C308.855 802.587 309.937 750.804 309.951 741.078C304.212 740.947 290.023 742.537 285.52 739.907C283.624 736.413 283.774 729.191 284.539 725.274C284.837 723.747 285.368 723.461 286.605 722.573Z"/>
	<path fill="#23363B" d="M651.918 722.557C656.664 722.371 664.548 721.158 668.739 723.646C671.305 728.132 670.048 780.956 670.055 791.452C677.26 791.59 684.488 791.544 691.696 791.517C694.488 791.506 697.54 791.042 700.293 791.389C701.745 791.571 703.253 792.249 704.302 793.277C705.99 794.93 706.601 797.8 706.587 800.076C706.566 803.354 706.55 807.222 704.166 809.581C697.278 810.544 655.943 810.819 651.274 808.729C650.491 806.506 650.544 803.654 650.511 801.301C650.273 784.544 650.486 767.748 650.446 750.986C650.427 743.033 649.597 732.726 650.471 725.013C650.622 723.685 651.009 723.492 651.918 722.557Z"/>
	<path fill="#23363B" d="M255.241 722.586Q255.875 722.536 256.51 722.5C260.242 722.295 268.643 721.175 271.382 723.983C272.611 725.243 272.019 750.713 272.007 754.199Q271.909 771.891 272.076 789.583C272.112 794.86 273.048 802.1 271.897 807.216C271.577 808.639 270.358 809.056 269.232 809.798C265.036 810.172 256.513 811.212 253.087 808.45C252.499 806.493 251.822 729.777 252.611 725.322C252.853 723.955 254.171 723.288 255.241 722.586Z"/>
	<path fill="#23363B" d="M270.993 847.239Q271.44 847.157 271.891 847.097Q272.341 847.037 272.794 846.999Q273.247 846.961 273.702 846.945Q274.156 846.929 274.61 846.935Q275.065 846.942 275.519 846.97Q275.972 846.999 276.424 847.05Q276.876 847.1 277.324 847.173Q277.773 847.246 278.218 847.34Q278.662 847.435 279.102 847.551Q279.541 847.667 279.975 847.805Q280.408 847.943 280.834 848.101Q281.26 848.26 281.678 848.439Q282.095 848.618 282.504 848.817Q282.912 849.017 283.311 849.236Q283.709 849.455 284.096 849.693Q284.483 849.932 284.858 850.189Q285.233 850.445 285.595 850.72Q285.957 850.995 286.305 851.288Q286.653 851.58 286.987 851.889Q287.32 852.198 287.638 852.523Q287.956 852.848 288.258 853.188Q288.559 853.528 288.844 853.882Q289.129 854.237 289.396 854.605Q289.663 854.973 289.911 855.353Q290.16 855.734 290.39 856.126Q290.62 856.518 290.83 856.921Q291.04 857.324 291.231 857.737Q291.421 858.149 291.591 858.571Q291.761 858.993 291.911 859.422Q292.06 859.851 292.188 860.287Q292.316 860.724 292.423 861.166Q292.529 861.607 292.614 862.054Q292.699 862.501 292.762 862.951Q292.825 863.401 292.866 863.854Q292.907 864.306 292.925 864.761Q292.944 865.215 292.941 865.669Q292.937 866.124 292.911 866.578Q292.886 867.032 292.838 867.484Q292.79 867.936 292.72 868.385Q292.65 868.834 292.558 869.279Q292.466 869.724 292.353 870.165Q292.24 870.605 292.105 871.039Q291.97 871.473 291.814 871.9Q291.658 872.327 291.482 872.746Q291.305 873.165 291.108 873.575Q290.912 873.984 290.695 874.384Q290.478 874.784 290.243 875.172Q290.007 875.561 289.752 875.937Q289.498 876.314 289.225 876.678Q288.952 877.041 288.662 877.391Q288.372 877.741 288.065 878.077Q287.758 878.412 287.435 878.732Q287.112 879.052 286.774 879.356Q286.436 879.66 286.084 879.946Q285.731 880.233 285.365 880.503Q284.999 880.772 284.62 881.023Q284.241 881.274 283.85 881.507Q283.459 881.739 283.058 881.952Q282.656 882.165 282.245 882.358Q281.833 882.551 281.413 882.723Q280.992 882.896 280.564 883.048Q280.135 883.2 279.7 883.331Q279.264 883.462 278.823 883.571Q278.382 883.68 277.936 883.768Q277.486 883.856 277.033 883.923Q276.58 883.989 276.123 884.032Q275.667 884.076 275.21 884.097Q274.752 884.118 274.294 884.117Q273.835 884.116 273.378 884.092Q272.92 884.068 272.464 884.021Q272.008 883.975 271.555 883.906Q271.102 883.837 270.653 883.746Q270.204 883.655 269.76 883.542Q269.316 883.429 268.878 883.294Q268.44 883.159 268.009 883.003Q267.579 882.846 267.156 882.669Q266.734 882.492 266.32 882.294Q265.907 882.096 265.504 881.878Q265.101 881.66 264.709 881.422Q264.317 881.185 263.938 880.928Q263.558 880.672 263.192 880.397Q262.825 880.122 262.472 879.829Q262.12 879.536 261.782 879.226Q261.445 878.917 261.122 878.591Q260.8 878.265 260.495 877.923Q260.189 877.582 259.901 877.225Q259.613 876.869 259.342 876.5Q259.072 876.13 258.82 875.747Q258.568 875.364 258.335 874.969Q258.102 874.575 257.889 874.169Q257.676 873.763 257.483 873.348Q257.291 872.932 257.119 872.507Q256.947 872.082 256.796 871.65Q256.645 871.217 256.515 870.777Q256.386 870.338 256.278 869.893Q256.171 869.447 256.085 868.997Q255.999 868.547 255.936 868.093Q255.873 867.639 255.832 867.183Q255.791 866.726 255.773 866.269Q255.754 865.811 255.759 865.352Q255.763 864.894 255.79 864.437Q255.817 863.979 255.866 863.524Q255.915 863.068 255.987 862.616Q256.059 862.163 256.153 861.715Q256.247 861.266 256.362 860.823Q256.478 860.379 256.616 859.942Q256.754 859.505 256.913 859.075Q257.071 858.646 257.251 858.224Q257.431 857.803 257.632 857.391Q257.832 856.979 258.053 856.577Q258.273 856.175 258.514 855.785Q258.754 855.395 259.013 855.017Q259.272 854.639 259.549 854.274Q259.826 853.909 260.121 853.558Q260.416 853.208 260.728 852.872Q261.04 852.536 261.368 852.216Q261.696 851.896 262.039 851.593Q262.383 851.289 262.741 851.003Q263.099 850.717 263.47 850.449Q263.842 850.181 264.226 849.931Q264.61 849.682 265.007 849.452Q265.403 849.221 265.81 849.011Q266.217 848.8 266.634 848.61Q267.051 848.42 267.476 848.251Q267.902 848.081 268.336 847.933Q268.769 847.785 269.21 847.658Q269.65 847.531 270.096 847.427Q270.542 847.322 270.993 847.239Z"/>
	<path fill="#FAF5E9" d="M272.927 853.043C275.234 852.956 277.623 853.342 279.682 854.428C282.476 855.902 284.495 858.49 285.397 861.502Q285.585 862.141 285.71 862.794Q285.836 863.448 285.897 864.111Q285.959 864.774 285.956 865.44Q285.952 866.106 285.885 866.768Q285.817 867.43 285.686 868.083Q285.555 868.736 285.361 869.372Q285.167 870.009 284.912 870.624Q284.657 871.24 284.344 871.827C282.483 875.246 279.888 876.767 276.278 877.914C273.652 877.959 271.358 877.876 268.989 876.621C266.211 875.149 264.271 872.608 263.385 869.61C262.325 866.025 262.718 861.926 264.636 858.697C266.637 855.328 269.28 854.061 272.927 853.043Z"/>
	<path fill="#23363B" d="M448.251 847.23Q448.7 847.149 449.153 847.089Q449.606 847.03 450.062 846.993Q450.517 846.957 450.973 846.942Q451.43 846.928 451.887 846.936Q452.343 846.944 452.799 846.975Q453.255 847.005 453.708 847.058Q454.162 847.111 454.613 847.186Q455.063 847.262 455.509 847.359Q455.956 847.456 456.397 847.575Q456.838 847.695 457.272 847.835Q457.707 847.976 458.134 848.138Q458.561 848.3 458.979 848.483Q459.398 848.665 459.807 848.868Q460.216 849.072 460.615 849.295Q461.013 849.518 461.401 849.76Q461.788 850.002 462.163 850.263Q462.537 850.525 462.899 850.804Q463.26 851.083 463.608 851.38Q463.955 851.677 464.287 851.99Q464.619 852.303 464.936 852.633Q465.252 852.962 465.552 853.307Q465.852 853.651 466.134 854.01Q466.417 854.369 466.681 854.741Q466.946 855.114 467.192 855.499Q467.438 855.884 467.664 856.28Q467.891 856.677 468.098 857.084Q468.305 857.491 468.491 857.908Q468.678 858.325 468.844 858.751Q469.009 859.176 469.154 859.61Q469.299 860.043 469.422 860.483Q469.545 860.922 469.646 861.368Q469.748 861.813 469.827 862.263Q469.906 862.713 469.963 863.166Q470.021 863.619 470.055 864.074Q470.09 864.53 470.102 864.986Q470.115 865.443 470.104 865.9Q470.094 866.356 470.062 866.812Q470.029 867.267 469.974 867.721Q469.919 868.174 469.842 868.624Q469.764 869.075 469.665 869.52Q469.566 869.966 469.444 870.406Q469.323 870.847 469.181 871.281Q469.038 871.715 468.874 872.141Q468.71 872.567 468.526 872.985Q468.341 873.403 468.136 873.811Q467.931 874.219 467.706 874.617Q467.481 875.014 467.237 875.4Q466.993 875.786 466.731 876.16Q466.468 876.534 466.187 876.894Q465.906 877.254 465.608 877.6Q465.31 877.946 464.995 878.277Q464.68 878.607 464.349 878.922Q464.018 879.237 463.672 879.536Q463.326 879.834 462.966 880.115Q462.606 880.396 462.232 880.658Q461.859 880.921 461.473 881.165Q461.087 881.41 460.689 881.634Q460.292 881.859 459.883 882.064Q459.475 882.269 459.058 882.454Q458.64 882.638 458.214 882.802Q457.787 882.966 457.353 883.109Q456.919 883.252 456.479 883.373Q456.039 883.494 455.593 883.593Q455.147 883.693 454.697 883.77Q454.249 883.847 453.799 883.902Q453.348 883.957 452.895 883.989Q452.442 884.022 451.988 884.033Q451.534 884.043 451.08 884.032Q450.626 884.02 450.173 883.986Q449.72 883.952 449.27 883.896Q448.819 883.84 448.372 883.762Q447.924 883.684 447.481 883.584Q447.038 883.485 446.601 883.363Q446.163 883.242 445.732 883.099Q445.301 882.957 444.877 882.793Q444.453 882.63 444.038 882.446Q443.623 882.262 443.217 882.057Q442.812 881.853 442.417 881.63Q442.021 881.406 441.638 881.163Q441.254 880.92 440.882 880.659Q440.511 880.398 440.153 880.119Q439.795 879.839 439.451 879.543Q439.106 879.247 438.777 878.934Q438.448 878.621 438.135 878.293Q437.821 877.964 437.524 877.62Q437.227 877.277 436.947 876.919Q436.667 876.562 436.405 876.191Q436.143 875.82 435.9 875.437Q435.656 875.053 435.431 874.659Q435.207 874.264 435.002 873.859Q434.797 873.453 434.612 873.039Q434.427 872.624 434.263 872.201Q434.099 871.777 433.955 871.346Q433.812 870.916 433.689 870.478Q433.567 870.041 433.467 869.598Q433.366 869.155 433.287 868.708Q433.208 868.261 433.151 867.81Q433.094 867.36 433.059 866.907Q433.025 866.454 433.012 866Q432.999 865.546 433.009 865.092Q433.019 864.638 433.05 864.185Q433.082 863.732 433.136 863.281Q433.19 862.831 433.266 862.383Q433.342 861.935 433.44 861.492Q433.538 861.048 433.657 860.61Q433.776 860.172 433.917 859.74Q434.057 859.308 434.219 858.884Q434.381 858.46 434.563 858.044Q434.745 857.628 434.947 857.221Q435.149 856.814 435.371 856.418Q435.593 856.022 435.834 855.637Q436.075 855.252 436.335 854.88Q436.595 854.507 436.872 854.148Q437.15 853.788 437.444 853.443Q437.739 853.097 438.05 852.767Q438.362 852.436 438.689 852.121Q439.016 851.806 439.358 851.508Q439.7 851.209 440.057 850.928Q440.413 850.646 440.783 850.382Q441.152 850.119 441.534 849.873Q441.917 849.628 442.31 849.402Q442.704 849.175 443.108 848.968Q443.513 848.762 443.926 848.575Q444.34 848.388 444.763 848.222Q445.185 848.056 445.616 847.91Q446.046 847.765 446.483 847.641Q446.919 847.516 447.362 847.414Q447.804 847.311 448.251 847.23Z"/>
	<path fill="#FAF5E9" d="M449.934 853.047C451.894 852.991 453.847 853.181 455.69 853.904Q456.236 854.118 456.756 854.387Q457.277 854.655 457.768 854.976Q458.259 855.296 458.714 855.665Q459.17 856.034 459.585 856.447Q460 856.86 460.372 857.314Q460.743 857.768 461.066 858.257Q461.388 858.746 461.66 859.265Q461.931 859.785 462.148 860.329Q462.403 860.978 462.59 861.65Q462.778 862.322 462.897 863.009Q463.015 863.696 463.064 864.392Q463.112 865.088 463.09 865.785Q463.068 866.482 462.975 867.173Q462.882 867.864 462.72 868.542Q462.558 869.221 462.328 869.879Q462.098 870.537 461.802 871.169C459.928 875.103 457.168 876.648 453.177 877.949C450.809 877.998 448.584 877.8 446.445 876.686C443.614 875.212 441.557 872.529 440.639 869.497C439.57 865.965 439.877 861.952 441.722 858.729C443.674 855.317 446.269 854.042 449.934 853.047Z"/>
	<path fill="#23363B" d="M729.522 847.502C737.632 847.299 747.055 846.26 753.667 851.947C757.331 855.099 759.334 859.707 759.562 864.495C759.831 870.161 757.976 874.592 754.28 878.762C746.684 884.696 738.206 883.53 729.146 883.429C728.671 871.536 728.837 859.386 729.522 847.502Z"/>
	<path fill="#FAF5E9" d="M735.872 853.532C740.449 853.428 744.458 853.441 748.378 856.13C750.819 857.804 752.587 860.421 753.021 863.367C753.563 867.04 751.971 870.639 749.905 873.56C745.455 877.374 741.373 877.1 735.811 877.101L735.872 853.532Z"/>
	<path fill="#23363B" d="M347.087 847.536C352.556 847.383 359.952 846.389 365.126 848.21C367.976 849.213 370.401 851.144 371.692 853.912C373.046 856.816 373.049 860.289 371.939 863.268C370.569 866.946 368.38 868.531 364.921 870.093C366.913 873.06 369.361 875.916 371.083 879.032C371.845 880.411 371.961 881.331 371.57 882.834C369.938 883.735 368.634 883.466 366.79 883.456C364.174 880.687 360.818 873.199 358.121 871.582C356.803 870.792 355.067 870.73 353.656 871.218C353.345 872.028 353.16 872.224 353.289 873.106C353.816 876.685 354.821 879.676 352.512 882.774C350.936 883.834 348.842 883.493 347.012 883.435C346.685 871.526 346.751 859.447 347.087 847.536Z"/>
	<path fill="#FAF5E9" d="M353.569 853.677C357.057 853.684 361.012 853.319 364.188 855.029C365.265 855.608 366.118 856.511 366.316 857.765C366.626 859.735 365.669 861.703 364.657 863.313C361.096 864.894 357.375 864.585 353.556 864.591L353.569 853.677Z"/>
	<path fill="#23363B" d="M538.55 847.136C540.241 847.317 541.248 847.391 542.326 848.851C544.682 852.04 555.665 879.349 554.985 882.963C554.866 883.039 554.755 883.132 554.626 883.193C553.198 883.86 551.02 883.524 549.615 882.992C548.576 882.011 548.158 881.339 547.677 879.996L546.084 875.556L538.75 875.54L530.972 875.534C530.194 878.224 529.21 880.843 528.251 883.473C526.513 883.503 523.355 883.859 522.017 882.679C523.021 876.677 531.122 853.506 534.66 848.881C535.78 847.417 536.86 847.453 538.55 847.136Z"/>
	<path fill="#FAF5E9" d="M538.363 855.353C541.107 858.391 542.659 865.35 544.046 869.299L538.897 869.225L533.064 869.252Q535.464 862.207 538.363 855.353Z"/>
	<path fill="#23363B" d="M633.421 847.105C637.732 846.913 643.192 847.075 646.912 849.483C648.275 850.365 648.636 851.282 648.976 852.809C648.575 854.442 647.345 855.339 646.168 856.446C642.51 854.319 638.517 852.445 634.147 852.957C631.405 853.278 629.177 854.723 627.552 856.926C625.268 860.025 624.359 864.165 625.062 867.942C625.694 871.346 627.598 874.574 630.487 876.533Q630.906 876.816 631.352 877.056Q631.797 877.295 632.265 877.488Q632.733 877.681 633.217 877.826Q633.702 877.971 634.199 878.066Q634.695 878.161 635.199 878.206Q635.703 878.25 636.209 878.243Q636.715 878.237 637.217 878.179Q637.72 878.121 638.214 878.013C641.069 877.41 644.048 875.905 645.494 873.243C646.093 872.141 646.095 871.51 645.76 870.345C643.257 869.436 640.49 870.59 637.874 869.726C637.121 868.267 637.359 866.313 637.37 864.69C642.054 863.841 647.671 864.437 652.448 864.475C652.553 868.703 652.531 872.606 650.43 876.411C648.51 879.889 645.233 882.281 641.434 883.347Q640.534 883.594 639.615 883.753Q638.696 883.911 637.765 883.98Q636.835 884.048 635.902 884.026Q634.97 884.004 634.043 883.891Q633.117 883.779 632.207 883.576Q631.296 883.374 630.409 883.085Q629.522 882.795 628.668 882.42Q627.813 882.046 626.999 881.59Q626.603 881.364 626.219 881.119Q625.835 880.873 625.464 880.608Q625.093 880.343 624.736 880.06Q624.379 879.776 624.037 879.475Q623.695 879.174 623.368 878.856Q623.042 878.537 622.732 878.203Q622.423 877.868 622.13 877.519Q621.838 877.169 621.564 876.804Q621.29 876.44 621.035 876.062Q620.78 875.685 620.544 875.294Q620.309 874.904 620.093 874.502Q619.878 874.101 619.683 873.688Q619.489 873.276 619.315 872.855Q619.142 872.433 618.99 872.003Q618.838 871.573 618.709 871.136Q618.579 870.699 618.472 870.256C617.258 865.38 618.101 859.518 620.786 855.254C623.7 850.626 628.254 848.341 633.421 847.105Z"/>
	<path fill="#23363B" d="M772.065 847.5C776.142 847.466 791.27 846.315 793.765 848.399C794.863 849.315 794.88 850.178 795.096 851.482C794.92 851.88 794.765 852.476 794.394 852.735C791.417 854.817 782.115 853.612 778.449 853.533L778.487 861.975C782.167 862.048 786.255 861.263 789.847 861.868C791.325 862.117 792.243 862.568 793.112 863.837C793.4 865.146 793.405 865.65 792.866 866.883C789.491 869.852 783.145 867.627 778.89 868.334L778.454 869.404L778.432 877.04L795.464 877.059L795.43 883.444L771.994 883.399Q771.781 865.449 772.065 847.5Z"/>
	<path fill="#23363B" d="M304.101 847.508C306.324 847.372 308.577 847.465 310.804 847.486C311.025 854.331 309.02 870.734 313.286 875.727C314.578 877.239 316.38 877.951 318.346 877.993C320.357 878.036 322.181 877.454 323.621 876.015C328.214 871.424 326.489 854.181 326.48 847.528C328.382 847.437 330.639 847.027 332.352 847.978C333.414 849.595 333.047 851.881 333.01 853.75C333.099 861.79 334.696 873.558 328.827 879.966C326.323 882.7 322.861 883.863 319.229 884.024C315.361 884.194 311.574 883.224 308.771 880.44C301.59 873.31 303.946 856.959 304.101 847.508Z"/>
	<path fill="#23363B" d="M664.647 847.505C666.513 847.39 668.164 847.296 670.005 847.663C672.98 850.323 669.717 867.815 672.283 873.413C673.203 875.422 675.542 877.535 677.671 878.178C679.231 878.649 680.698 878.39 682.083 877.544C691.098 872.04 684.592 857.22 687.072 849.543C687.536 848.108 688.278 847.549 689.582 846.917C690.806 846.954 691.813 847.386 692.673 848.276C693.816 849.458 693.485 851.822 693.46 853.367C693.528 861.501 695.205 873.631 689.336 880.029C686.879 882.708 683.419 883.851 679.856 884.009C675.889 884.185 672.024 883.172 669.171 880.29C662.029 873.077 664.44 856.906 664.647 847.505Z"/>
	<path fill="#23363B" d="M495.488 847.107Q496.786 847.021 498.086 847.02C504.086 846.978 508.141 849.378 512.289 853.497C511.105 854.805 509.779 856.002 508.504 857.222C506.843 856.115 505.161 854.965 503.31 854.196C500.331 852.958 496.417 852.661 493.419 853.975C490.576 855.22 488.784 857.652 487.825 860.545C486.58 864.303 486.795 868.57 488.648 872.093C490.024 874.707 492.318 876.998 495.225 877.802C498.54 878.718 502.042 877.647 504.957 876.064C506.064 875.189 506.781 874.593 508.232 874.387C510.031 874.89 511.203 876.572 512.41 877.924C509.667 880.377 506.578 882.345 503.018 883.364Q502.163 883.616 501.287 883.781Q500.411 883.946 499.523 884.022Q498.635 884.098 497.744 884.084Q496.853 884.07 495.967 883.966Q495.082 883.862 494.212 883.67Q493.342 883.478 492.495 883.199Q491.649 882.92 490.834 882.557Q490.02 882.194 489.247 881.751C484.948 879.27 481.926 875.043 480.691 870.26C479.38 865.181 480.173 859.525 483.024 855.097C485.99 850.49 490.305 848.326 495.488 847.107Z"/>
	<path fill="#23363B" d="M217.807 847.568C220.194 847.341 222.576 847.437 224.97 847.482C228.212 852.935 230.842 858.786 234.015 864.302Q238.171 855.807 242.637 847.472C245.194 847.307 247.811 847.482 250.372 847.539C248.296 852.086 245.538 856.411 243.048 860.746C237.565 869.787 236.906 872.848 237.066 883.406C235.152 883.43 232.876 883.722 231.13 882.857C229.577 878.659 231.607 873.682 229.788 869.33C226.708 861.961 219.613 855.338 217.807 847.568Z"/>
	<path fill="#23363B" d="M404.032 847.498C406.052 847.379 407.772 847.318 409.757 847.75C411.35 851.779 410.498 871.498 410.51 877.052L425.113 877.144C425.275 879.207 425.229 881.298 425.244 883.367C418.185 883.556 411.09 883.412 404.027 883.407C403.618 871.507 403.748 859.405 404.032 847.498Z"/>
	<path fill="#23363B" d="M567.038 847.492C569.003 847.407 570.814 847.409 572.763 847.7C574.44 851.634 573.497 871.608 573.505 877.048C577.645 877.132 584.161 875.612 587.478 878.215C588.381 879.785 588.006 881.608 587.872 883.343Q577.402 883.538 566.931 883.354Q566.774 865.422 567.038 847.492Z"/>
	<path fill="#23363B" d="M708.059 847.528C710.203 847.378 712.362 847.473 714.509 847.51Q714.626 865.452 714.462 883.393L708.038 883.428C707.612 871.526 707.815 859.438 708.059 847.528Z"/>
</svg>
